v 536.195 809.695 0
vn -0 0 1
vt 0 -1
v 612.995 776.887 0
vn -0 0 1
vt 83.4805 -1
v 545.482 805.986 0
vn -0 0 1
vt 10.0464 -1
v 554.72 802.156 0
vn -0 0 1
vt 20.0928 -1
v 563.908 798.205 0
vn -0 0 1
vt 30.1392 -1
v 573.038 794.128 0
vn -0 0 1
vt 40.2051 -1
v 582.059 789.813 0
vn -0 0 1
vt 50.2612 -1
v 587.164 787.429 0
vn -0 0 1
vt 55.8093 -1
v 594.044 784.434 0
vn -0 0 1
vt 63.2379 -1
v 603.292 780.628 0
vn -0 0 1
vt 73.161 -1
v 612.621 777.026 0
vn -0 0 1
vt 83.0841 -1
v 537.472 812.954 0
vn -0 0 1
vt 0 0
v 614.216 780.166 0
vn -0 0 1
vt 83.4805 0
v 546.759 809.245 0
vn -0 0 1
vt 10 0
v 555.997 805.416 0
vn -0 0 1
vt 20 0
v 565.184 801.467 0
vn -0 0 1
vt 30 0
v 574.316 797.393 0
vn -0 0 1
vt 40 0
v 583.339 793.082 0
vn -0 0 1
vt 50 0
v 588.433 790.696 0
vn -0 0 1
vt 55.625 0
v 595.308 787.7 0
vn -0 0 1
vt 63.125 0
v 604.554 783.892 0
vn -0 0 1
vt 73.125 0
v 613.883 780.291 0
vn -0 0 1
vt 83.125 0
v 538.749 816.213 0
vn -0 0 1
vt 0 1
v 615.438 783.446 0
vn -0 0 1
vt 83.4805 1
v 548.036 812.504 0
vn -0 0 1
vt 9.95483 1
v 557.274 808.676 0
vn -0 0 1
vt 19.9097 1
v 566.462 804.728 0
vn -0 0 1
vt 29.8645 1
v 575.596 800.656 0
vn -0 0 1
vt 39.8035 1
v 584.621 796.349 0
vn -0 0 1
vt 49.7375 1
v 589.708 793.961 0
vn -0 0 1
vt 55.4408 1
v 596.577 790.963 0
vn -0 0 1
vt 63.0159 1
v 605.823 787.154 0
vn -0 0 1
vt 73.094 1
v 615.151 783.553 0
vn -0 0 1
vt 83.1721 1
v 540.573 820.868 0
vn -0 0 1
vt 0 6
v 617.183 788.132 0
vn -0 0 1
vt 83.4805 6
v 534.371 805.04 0
vn -0 0 1
vt 0 -6
v 611.25 772.201 0
vn -0 0 1
vt 83.4805 -6
v 647.606 772.868 0
vn -0 0 1
vt 0 -2
v 729.068 743.218 0
vn -0 0 1
vt 86.6897 -2
v 657.003 769.448 0
vn -0 0 1
vt 10 -2
v 666.4 766.028 0
vn -0 0 1
vt 20 -2
v 675.797 762.607 0
vn -0 0 1
vt 30 -2
v 685.194 759.187 0
vn -0 0 1
vt 40 -2
v 694.59 755.767 0
vn -0 0 1
vt 50 -2
v 703.987 752.347 0
vn -0 0 1
vt 60 -2
v 713.384 748.927 0
vn -0 0 1
vt 70 -2
v 722.781 745.506 0
vn -0 0 1
vt 80 -2
v 648.803 776.157 0
vn -0 0 1
vt 0 -1
v 730.265 746.507 0
vn -0 0 1
vt 86.6897 -1
v 658.2 772.737 0
vn -0 0 1
vt 10 -1
v 667.597 769.317 0
vn -0 0 1
vt 20 -1
v 676.994 765.896 0
vn -0 0 1
vt 30 -1
v 686.391 762.476 0
vn -0 0 1
vt 40 -1
v 695.788 759.056 0
vn -0 0 1
vt 50 -1
v 705.184 755.636 0
vn -0 0 1
vt 60 -1
v 714.581 752.216 0
vn -0 0 1
vt 70 -1
v 723.978 748.795 0
vn -0 0 1
vt 80 -1
v 650 779.446 0
vn -0 0 1
vt 0 0
v 731.462 749.796 0
vn -0 0 1
vt 86.6897 0
v 659.397 776.026 0
vn -0 0 1
vt 10 0
v 668.794 772.605 0
vn -0 0 1
vt 20 0
v 678.191 769.185 0
vn -0 0 1
vt 30 0
v 687.588 765.765 0
vn -0 0 1
vt 40 0
v 696.985 762.345 0
vn -0 0 1
vt 50 0
v 706.382 758.925 0
vn -0 0 1
vt 60 0
v 715.778 755.504 0
vn -0 0 1
vt 70 0
v 725.175 752.084 0
vn -0 0 1
vt 80 0
v 651.71 784.144 0
vn -0 0 1
vt 0 5
v 733.172 754.495 0
vn -0 0 1
vt 86.6897 5
v 645.896 768.17 0
vn -0 0 1
vt 0 -7
v 727.357 738.52 0
vn -0 0 1
vt 86.6897 -7
v 540.573 820.868 0
vn -0 0 1
vt 0 6
v 617.183 788.132 0
vn -0 0 1
vt 83.4805 6
v 534.371 805.04 0
vn -0 0 1
vt 0 -6
v 611.25 772.201 0
vn -0 0 1
vt 83.4805 -6
v 651.71 784.144 0
vn -0 0 1
vt 0 5
v 733.172 754.495 0
vn -0 0 1
vt 86.6897 5
v 645.896 768.17 0
vn -0 0 1
vt 0 -7
v 727.357 738.52 0
vn -0 0 1
vt 86.6897 -7
g asphalt
f 12/12/12	1/1/1	14/14/14	
f 14/14/14	1/1/1	3/3/3	
f 14/14/14	3/3/3	15/15/15	
f 15/15/15	3/3/3	4/4/4	
f 15/15/15	4/4/4	16/16/16	
f 16/16/16	4/4/4	5/5/5	
f 16/16/16	5/5/5	17/17/17	
f 17/17/17	5/5/5	6/6/6	
f 17/17/17	6/6/6	18/18/18	
f 18/18/18	6/6/6	7/7/7	
f 18/18/18	7/7/7	19/19/19	
f 19/19/19	7/7/7	8/8/8	
f 19/19/19	8/8/8	20/20/20	
f 20/20/20	8/8/8	9/9/9	
f 20/20/20	9/9/9	21/21/21	
f 21/21/21	9/9/9	10/10/10	
f 21/21/21	10/10/10	11/11/11	
f 21/21/21	11/11/11	22/22/22	
f 22/22/22	11/11/11	2/2/2	
f 22/22/22	2/2/2	13/13/13	
f 23/23/23	12/12/12	25/25/25	
f 25/25/25	12/12/12	14/14/14	
f 25/25/25	14/14/14	26/26/26	
f 26/26/26	14/14/14	15/15/15	
f 26/26/26	15/15/15	27/27/27	
f 27/27/27	15/15/15	16/16/16	
f 27/27/27	16/16/16	28/28/28	
f 28/28/28	16/16/16	17/17/17	
f 28/28/28	17/17/17	29/29/29	
f 29/29/29	17/17/17	18/18/18	
f 29/29/29	18/18/18	30/30/30	
f 30/30/30	18/18/18	19/19/19	
f 30/30/30	19/19/19	31/31/31	
f 31/31/31	19/19/19	20/20/20	
f 31/31/31	20/20/20	32/32/32	
f 32/32/32	20/20/20	21/21/21	
f 32/32/32	21/21/21	22/22/22	
f 32/32/32	22/22/22	33/33/33	
f 33/33/33	22/22/22	13/13/13	
f 33/33/33	13/13/13	24/24/24	
f 48/48/48	38/38/38	40/40/40	
f 48/48/48	40/40/40	50/50/50	
f 50/50/50	40/40/40	41/41/41	
f 50/50/50	41/41/41	51/51/51	
f 51/51/51	41/41/41	42/42/42	
f 51/51/51	42/42/42	52/52/52	
f 52/52/52	42/42/42	43/43/43	
f 52/52/52	43/43/43	53/53/53	
f 53/53/53	43/43/43	44/44/44	
f 53/53/53	44/44/44	54/54/54	
f 54/54/54	44/44/44	45/45/45	
f 54/54/54	45/45/45	55/55/55	
f 55/55/55	45/45/45	46/46/46	
f 55/55/55	46/46/46	56/56/56	
f 56/56/56	46/46/46	47/47/47	
f 56/56/56	47/47/47	57/57/57	
f 57/57/57	47/47/47	39/39/39	
f 57/57/57	39/39/39	49/49/49	
f 58/58/58	48/48/48	50/50/50	
f 58/58/58	50/50/50	60/60/60	
f 60/60/60	50/50/50	51/51/51	
f 60/60/60	51/51/51	61/61/61	
f 61/61/61	51/51/51	62/62/62	
f 62/62/62	51/51/51	52/52/52	
f 62/62/62	52/52/52	53/53/53	
f 62/62/62	53/53/53	63/63/63	
f 63/63/63	53/53/53	54/54/54	
f 63/63/63	54/54/54	64/64/64	
f 64/64/64	54/54/54	55/55/55	
f 64/64/64	55/55/55	65/65/65	
f 65/65/65	55/55/55	66/66/66	
f 66/66/66	55/55/55	56/56/56	
f 66/66/66	56/56/56	57/57/57	
f 66/66/66	57/57/57	67/67/67	
f 67/67/67	57/57/57	49/49/49	
f 67/67/67	49/49/49	59/59/59	
